<?xml version="1.0" standalone="no"?>
<!DOCTYPE svg PUBLIC "-//W3C//DTD SVG 20010904//EN"
 "http://www.w3.org/TR/2001/REC-SVG-20010904/DTD/svg10.dtd">
<svg version="1.0" xmlns="http://www.w3.org/2000/svg"
 width="88.000000pt" height="88.000000pt" viewBox="0 0 8.000000 68.000000"
 preserveAspectRatio="xMidYMid meet">

<g transform="translate(0.000000,48.000000) scale(0.100000,-0.100000)"
fill="#000000" stroke="none">
<path d="M283 283 c9 -11 17 -30 17 -43 0 -13 -8 -32 -17 -43 -14 -16 -15 -19
-3 -15 8 2 22 17 30 31 13 24 13 30 0 54 -8 14 -22 29 -30 31 -12 4 -11 1 3
-15z"/>
<path d="M160 240 c0 -30 3 -38 14 -34 29 11 29 57 0 68 -11 4 -14 -4 -14 -34z"/>
</g>
</svg>
